<svg width="24" height="24" viewBox="0 0 24 24" fill="none" xmlns="http://www.w3.org/2000/svg">
<path d="M5.6 20H18.4C18.8243 20 19.2313 19.8314 19.5314 19.5314C19.8314 19.2313 20 18.8243 20 18.4V5.6C20 5.17565 19.8314 4.76869 19.5314 4.46863C19.2313 4.16857 18.8243 4 18.4 4H8.8C8.37565 4 7.96869 4.16857 7.66863 4.46863C7.36857 4.76869 7.2 5.17565 7.2 5.6V18.4C7.2 18.8243 7.03143 19.2313 6.73137 19.5314C6.43131 19.8314 6.02435 20 5.6 20ZM5.6 20C5.17565 20 4.76869 19.8314 4.46863 19.5314C4.16857 19.2313 4 18.8243 4 18.4V11.2C4 10.32 4.72 9.6 5.6 9.6H7.2M16.8 13.6H10.4M14.4 16.8H10.4M10.4 7.2H16.8V10.4H10.4V7.2Z" stroke="#E8E8E8" stroke-width="1.6" stroke-linecap="round" stroke-linejoin="round"/>
</svg>
