<svg width="16" height="17" viewBox="0 0 16 17" fill="none" xmlns="http://www.w3.org/2000/svg">
<path d="M12.6667 2.49998H3.33333C2.59695 2.49998 2 3.09693 2 3.83331V13.1666C2 13.903 2.59695 14.5 3.33333 14.5H12.6667C13.403 14.5 14 13.903 14 13.1666V3.83331C14 3.09693 13.403 2.49998 12.6667 2.49998Z" stroke="#BDA6F5" stroke-width="1.33333" stroke-linecap="round" stroke-linejoin="round"/>
<path d="M7.33301 6.5H9.99967C10.3533 6.5 10.6924 6.35952 10.9425 6.10948C11.1925 5.85943 11.333 5.52029 11.333 5.16667V2.5" stroke="#BDA6F5" stroke-width="1.33333" stroke-linecap="round" stroke-linejoin="round"/>
<path d="M6.00033 7.83329C6.73671 7.83329 7.33366 7.23634 7.33366 6.49996C7.33366 5.76358 6.73671 5.16663 6.00033 5.16663C5.26395 5.16663 4.66699 5.76358 4.66699 6.49996C4.66699 7.23634 5.26395 7.83329 6.00033 7.83329Z" stroke="#BDA6F5" stroke-width="1.33333" stroke-linecap="round" stroke-linejoin="round"/>
<path d="M4.66699 14.5V11.8333C4.66699 11.4797 4.80747 11.1406 5.05752 10.8905C5.30756 10.6405 5.6467 10.5 6.00033 10.5H8.66699" stroke="#BDA6F5" stroke-width="1.33333" stroke-linecap="round" stroke-linejoin="round"/>
<path d="M10.0003 11.8333C10.7367 11.8333 11.3337 11.2363 11.3337 10.5C11.3337 9.76358 10.7367 9.16663 10.0003 9.16663C9.26395 9.16663 8.66699 9.76358 8.66699 10.5C8.66699 11.2363 9.26395 11.8333 10.0003 11.8333Z" stroke="#BDA6F5" stroke-width="1.33333" stroke-linecap="round" stroke-linejoin="round"/>
</svg>
