<svg width="40" height="34" viewBox="0 0 40 34" fill="none" xmlns="http://www.w3.org/2000/svg">
<g filter="url(#filter0_b_66_562)">
<path d="M28.1303 24C28.0299 23.712 27.9627 23.4133 27.9303 23.11C27.2603 23.81 26.4503 24.16 25.5203 24.16C24.6903 24.16 24.0003 23.92 23.4703 23.45C22.9403 23 22.6703 22.39 22.6703 21.66C22.6703 20.78 23.0003 20.1 23.6703 19.61C24.3403 19.12 25.2803 18.88 26.5003 18.88H27.9003V18.24C27.9003 17.75 27.7503 17.36 27.4503 17.07C27.1503 16.78 26.7003 16.64 26.1203 16.64C25.6003 16.64 25.1703 16.76 24.8203 17C24.4703 17.25 24.3003 17.54 24.3003 17.89H22.8403C22.8403 17.46 22.9903 17.05 23.2903 16.65C23.5703 16.25 24.0003 15.94 24.5103 15.71C25.0203 15.5 25.5703 15.36 26.2003 15.36C27.1803 15.36 27.9403 15.6 28.4903 16.09C29.0403 16.58 29.3303 17.25 29.3503 18.11V22C29.3503 22.8 29.4503 23.42 29.6503 23.88V24H28.1303ZM25.7303 22.88C26.1803 22.88 26.6103 22.77 27.0203 22.56C27.4203 22.35 27.7203 22.07 27.9003 21.73V20.16H26.7703C25.0003 20.16 24.1103 20.63 24.1103 21.57C24.1103 22 24.2603 22.3 24.5703 22.53C24.8703 22.76 25.2503 22.88 25.7303 22.88ZM13.5303 19.71H17.6003L15.5703 14.29L13.5303 19.71ZM14.7103 12H16.4303L21.1403 24H19.2103L18.2403 21.43H12.8903L11.9303 24H10.0003L14.7103 12Z" fill="white"/>
</g>
<defs>
<filter id="filter0_b_66_562" x="-79.9997" y="-80" width="200" height="194" filterUnits="userSpaceOnUse" color-interpolation-filters="sRGB">
<feFlood flood-opacity="0" result="BackgroundImageFix"/>
<feGaussianBlur in="BackgroundImageFix" stdDeviation="40"/>
<feComposite in2="SourceAlpha" operator="in" result="effect1_backgroundBlur_66_562"/>
<feBlend mode="normal" in="SourceGraphic" in2="effect1_backgroundBlur_66_562" result="shape"/>
</filter>
</defs>
</svg>
